# xmcd
#
# Track frame offsets: 
#        150
#        15965
#        41040
#        59100
#        79675
#        102385
#        130277
#        168607
#        210810
#        235522
#        268312
#
# Disc length: 3868 seconds
#
# Revision: 2
# Processed by: cddbd v1.5.2PL0 Copyright (c) Steve Scherf et al.
# Submitted via: ExactAudioCopy v0.95b4
#
DISCID=910f1a0b
DTITLE=Eric Clapton - 1
DYEAR=2001
DGENRE=Rock
TTITLE0=Key To The Highway
TTITLE1=Reptile
TTITLE2=Got You On My Mind
TTITLE3=Tears In Heaven
TTITLE4=Bell Bottom Blues
TTITLE5=Change The World
TTITLE6=My Father's Eyes
TTITLE7=River of Tears
TTITLE8=Going Down Slow
TTITLE9=She's Gone
TTITLE10=I Want A Little Girl
EXTD=
EXTT0=
EXTT1=
EXTT2=
EXTT3=
EXTT4=
EXTT5=
EXTT6=
EXTT7=
EXTT8=
EXTT9=
EXTT10=
PLAYORDER=
